<svg xmlns="http://www.w3.org/2000/svg" width="20" height="14.002" viewBox="0 0 20 14.002">
  <path id="Path_3" data-name="Path 3" d="M12,19a10.785,10.785,0,0,1-4.746-1.035,10.076,10.076,0,0,1-3.041-2.282A10.59,10.59,0,0,1,2.1,12.316L2,12l.105-.316A10.661,10.661,0,0,1,4.214,8.317a10.074,10.074,0,0,1,3.04-2.282A10.785,10.785,0,0,1,12,5a10.786,10.786,0,0,1,4.746,1.035,10.073,10.073,0,0,1,3.041,2.282A10.5,10.5,0,0,1,21.9,11.684L22,12l-.1.316A10.423,10.423,0,0,1,12,19ZM12,7a8.308,8.308,0,0,0-7.883,5A8.307,8.307,0,0,0,12,17a8.309,8.309,0,0,0,7.883-5A8.3,8.3,0,0,0,12,7Zm0,8a3.02,3.02,0,1,1,2.115-.884A2.976,2.976,0,0,1,12,15Z" transform="translate(-2 -4.999)" fill="#2e3a59"/>
</svg>
